# xmcd CD database file
#
# Track frame offsets:
#	150
#	12814
#	30293
#	42653
#	57571
#	73917
#	90589
#	105853
#	116609
#	134535
#	150895
#	165054
#	185231
#	195892
#
# Disc length: 2863 seconds
#
# Revision: 0
# Processed by: cddbd v1.5.1PL0 Copyright (c) Steve Scherf et al.
# Submitted via: CDex 1.50
#
DISCID=a90b2d0e
DTITLE=Mixed Artists - Texas Country Artist Vol 3
DYEAR=1900
DGENRE=Country
TTITLE0=Rick Stancil =You're In Love With The Wrong Man
TTITLE1=Ashleigh Rogers =I Wanna Fly
TTITLE2=The Posse =Ain't Getting Up
TTITLE3=Liz Talley =Lately A Stranger In My Arms
TTITLE4=Randy Meadows =She's Gotta Way Of Walking
TTITLE5=David Tyler =I'll See You In Tijuana
TTITLE6=Jerry Martin =Love Is Gonna Make It
TTITLE7=Rob Austin =Lonely Alone
TTITLE8=Cynthia Rene Jones =I Got Pictures
TTITLE9=Amanda Williams =Just Another Jackass
TTITLE10=David Tyler =Spending Eternity In Jersey
TTITLE11=Spring Creek Band =The Finer Things In Life
TTITLE12=Lindsey Cook =Momma Didn't Raise No Cajun Fool
TTITLE13=Rick Stancil =A Walk To Remember
EXTD=
EXTT0=
EXTT1=
EXTT2=
EXTT3=
EXTT4=
EXTT5=
EXTT6=
EXTT7=
EXTT8=
EXTT9=
EXTT10=
EXTT11=
EXTT12=
EXTT13=
PLAYORDER=
